<svg width="24" height="24" viewBox="0 0 24 24" fill="none" xmlns="http://www.w3.org/2000/svg">
<g clip-path="url(#clip0)">
<path d="M23.1853 11.0864L21.551 10.3791L20.1633 7.67856C19.7882 6.93912 19.0273 6.47831 18.1968 6.48367H15.807V5.80853C15.807 4.58685 14.8318 3.59021 13.6101 3.59021H2.18631C0.964629 3.59021 0.000142572 4.5922 0.000142572 5.80853V16.15C-0.0105739 16.8948 0.584192 17.5056 1.32899 17.5163C1.33435 17.5163 1.33971 17.5163 1.35042 17.5163H1.63441C1.63441 17.5699 1.62905 17.5913 1.62905 17.6235C1.62369 19.1559 2.86145 20.4044 4.39391 20.4098C5.92637 20.4151 7.17485 19.1774 7.18021 17.6449C7.18021 17.6342 7.18021 17.6288 7.18021 17.6181C7.18021 17.5806 7.1802 17.5645 7.17485 17.511H16.4071C16.4071 17.5645 16.4071 17.586 16.4071 17.6181C16.4018 19.1506 17.6395 20.3991 19.172 20.4044C20.7044 20.4098 21.9529 19.172 21.9583 17.6396C21.9583 17.6288 21.9583 17.6235 21.9583 17.6128C21.9583 17.5753 21.9583 17.5592 21.9583 17.5056H22.6495C23.3943 17.5056 23.9998 16.9001 23.9998 16.1553C23.9998 16.15 23.9998 16.1446 23.9998 16.1339V12.3295C24.0105 11.8044 23.689 11.3061 23.1853 11.0864ZM4.40999 19.3435C3.46693 19.3435 2.70606 18.5826 2.70606 17.6396C2.70606 16.6965 3.46693 15.9356 4.40999 15.9356C5.35304 15.9356 6.11391 16.6965 6.11391 17.6396C6.11391 18.5772 5.34768 19.3435 4.40999 19.3435ZM14.7353 16.4554H6.92301C6.47292 15.4748 5.487 14.8479 4.40999 14.8533C3.32762 14.8479 2.34706 15.4695 1.89696 16.4554H1.35042C1.18432 16.4554 1.07179 16.3268 1.07179 16.1607V13.4012H14.7353V16.4554ZM14.7353 5.81389V12.3295H1.07179V5.81389C1.07179 5.18697 1.55939 4.66722 2.18631 4.66722H13.6101C14.237 4.67258 14.7407 5.18697 14.7353 5.80853V5.81389ZM15.807 7.56068H18.1968C18.6201 7.55532 19.0166 7.78572 19.2148 8.16616L20.2865 10.2398H15.807V7.56068ZM19.1881 19.3435C18.245 19.3435 17.4841 18.5826 17.4841 17.6396C17.4841 16.6965 18.245 15.9356 19.1881 15.9356C20.1311 15.9356 20.892 16.6965 20.892 17.6396C20.892 18.5772 20.1311 19.3435 19.1881 19.3435ZM22.9335 16.1607C22.9335 16.3268 22.821 16.4554 22.6548 16.4554H21.7011C21.0527 15.0676 19.4024 14.4675 18.0146 15.1158C17.4252 15.3891 16.9483 15.866 16.675 16.4554H15.807V11.3115H21.0581L22.762 12.0616C22.8692 12.1152 22.9388 12.2331 22.9335 12.351V16.1607Z" fill="white"/>
</g>
<defs>
<clipPath id="clip0">
<rect width="24" height="24" fill="white"/>
</clipPath>
</defs>
</svg>
