<svg width="16" height="16" viewBox="0 0 16 16" fill="none" xmlns="http://www.w3.org/2000/svg">
<g clip-path="url(#clip0)">
<path d="M14.001 2.49912H4.00453C3.45244 2.49912 3.00488 2.94668 3.00488 3.49877C3.00488 4.05086 3.45244 4.49842 4.00453 4.49842H14.001C14.5531 4.49842 15.0007 4.05086 15.0007 3.49877C15.0007 2.94668 14.5531 2.49912 14.001 2.49912Z" fill="#1B1C1E"/>
<path d="M2.0049 3.49876C2.00377 3.23407 1.89772 2.98063 1.71 2.79401C1.32011 2.40642 0.69039 2.40642 0.300496 2.79401C0.112749 2.98063 0.00669296 3.23407 0.00559959 3.49876C-0.00186653 3.56352 -0.00186653 3.62893 0.00559959 3.69369C0.0169081 3.75882 0.0353391 3.82252 0.0605803 3.88362C0.0874146 3.94282 0.119185 3.99968 0.155547 4.05356C0.19144 4.10961 0.233332 4.16156 0.280503 4.20851C0.325987 4.25381 0.376251 4.29404 0.43045 4.32847C0.483088 4.3668 0.540162 4.39869 0.60039 4.42343C0.666648 4.4578 0.73728 4.48304 0.810317 4.49841C0.875075 4.50565 0.94049 4.50565 1.00525 4.49841C1.26922 4.49863 1.52257 4.39441 1.71 4.20851C1.75717 4.16156 1.79906 4.10961 1.83496 4.05356C1.87132 3.99968 1.90309 3.94282 1.92992 3.88362C1.96182 3.82327 1.98697 3.75957 2.0049 3.69369C2.01236 3.62893 2.01236 3.56352 2.0049 3.49876Z" fill="#1B1C1E"/>
<path d="M2.00516 7.99718C2.01259 7.93243 2.01259 7.86701 2.00516 7.80225C1.98788 7.73775 1.9627 7.67564 1.93018 7.61732C1.90444 7.556 1.87261 7.49739 1.83522 7.44238C1.80057 7.38696 1.75852 7.33651 1.71026 7.29244C1.32037 6.90486 0.69065 6.90486 0.300756 7.29244C0.113009 7.47906 0.00695274 7.7325 0.00585938 7.99718C0.00779619 8.12892 0.0331935 8.25922 0.080833 8.38205C0.105887 8.44118 0.136001 8.49804 0.170801 8.55199C0.208819 8.60631 0.252366 8.65657 0.300756 8.70193C0.344928 8.7501 0.395347 8.79215 0.450703 8.82689C0.503341 8.86525 0.560383 8.89714 0.620643 8.92185C0.681591 8.9475 0.745349 8.96596 0.810576 8.97683C0.874523 8.99117 0.939968 8.99789 1.00551 8.99683C1.07027 9.00429 1.13568 9.00429 1.20044 8.99683C1.26404 8.98592 1.32615 8.96746 1.38537 8.94185C1.44726 8.91729 1.50599 8.8854 1.56031 8.84688C1.61567 8.81214 1.66609 8.7701 1.71026 8.72193C1.75843 8.67775 1.80048 8.62733 1.83522 8.57198C1.87364 8.51937 1.90554 8.46233 1.93018 8.40204C1.96433 8.33569 1.98954 8.26509 2.00516 8.19211C2.01284 8.12736 2.01284 8.06194 2.00516 7.99718Z" fill="#1B1C1E"/>
<path d="M2.00522 12.4956C2.01262 12.4308 2.01262 12.3654 2.00522 12.3007C1.98794 12.2346 1.96276 12.1708 1.93024 12.1107C1.90341 12.0515 1.87164 11.9947 1.83528 11.9408C1.80054 11.8854 1.75849 11.835 1.71032 11.7909C1.32043 11.4033 0.690711 11.4033 0.300817 11.7909C0.252646 11.835 0.210599 11.8854 0.175861 11.9408C0.139499 11.9947 0.107729 12.0515 0.0808943 12.1107C0.0549659 12.1716 0.0365036 12.2354 0.0259136 12.3007C0.0118248 12.3647 0.00513968 12.4301 0.00592065 12.4956C0.00704526 12.7603 0.113102 13.0137 0.300817 13.2004C0.344989 13.2485 0.395409 13.2906 0.450764 13.3253C0.503402 13.3637 0.560444 13.3956 0.620705 13.4203C0.681652 13.4459 0.745411 13.4644 0.810638 13.4753C0.874584 13.4896 0.94003 13.4963 1.00557 13.4953C1.07033 13.5027 1.13574 13.5027 1.2005 13.4953C1.2641 13.4844 1.32621 13.4659 1.38544 13.4403C1.44732 13.4157 1.50605 13.3838 1.56037 13.3453C1.61573 13.3106 1.66615 13.2685 1.71032 13.2204C1.75849 13.1762 1.80054 13.1258 1.83528 13.0704C1.87373 13.0178 1.90563 12.9608 1.93024 12.9005C1.96436 12.8341 1.98957 12.7635 2.00522 12.6905C2.0129 12.6258 2.0129 12.5604 2.00522 12.4956Z" fill="#1B1C1E"/>
<path d="M15.0007 6.99754H4.00453C3.45244 6.99754 3.00488 7.4451 3.00488 7.99719C3.00488 8.54928 3.45244 8.99684 4.00453 8.99684H15.0007C15.5528 8.99684 16.0003 8.54928 16.0003 7.99719C16.0003 7.4451 15.5528 6.99754 15.0007 6.99754Z" fill="#1B1C1E"/>
<path d="M10.5022 11.496H4.00453C3.45244 11.496 3.00488 11.9435 3.00488 12.4956C3.00488 13.0477 3.45244 13.4953 4.00453 13.4953H10.5022C11.0543 13.4953 11.5019 13.0477 11.5019 12.4956C11.5019 11.9435 11.0543 11.496 10.5022 11.496Z" fill="#1B1C1E"/>
</g>
<defs>
<clipPath id="clip0">
<rect width="16" height="16" fill="white"/>
</clipPath>
</defs>
</svg>
