<svg width="24" height="24" viewBox="0 0 24 24" fill="none" xmlns="http://www.w3.org/2000/svg">
<path d="M18.3572 10.2065V6.40577C18.3674 4.68603 17.6805 3.03244 16.4543 1.82658C15.2688 0.646173 13.717 0 12.0735 0C12.0481 0 12.0176 0 11.9921 0C8.48651 0.00508798 5.63725 2.87471 5.63725 6.40577V10.2065C4.31437 10.3642 3.34766 11.4734 3.34766 12.8166V21.3542C3.34766 22.8043 4.50772 24 5.95779 24H18.0417C19.4918 24 20.6519 22.8043 20.6519 21.3542V12.8166C20.6468 11.4785 19.6801 10.3642 18.3572 10.2065ZM6.64975 6.40577H6.65484C6.65484 3.43439 9.05128 1.00233 11.9972 1.00233H12.0023C13.4015 0.997244 14.7447 1.55183 15.7369 2.5389C16.7697 3.56159 17.3447 4.95569 17.3345 6.40577V10.2116H16.2152V6.40577C16.2253 5.25079 15.7674 4.14162 14.9482 3.32754C14.1749 2.55417 13.1268 2.1166 12.0328 2.1166H12.0023C9.66184 2.1166 7.76911 4.03986 7.76911 6.40068V10.2116H6.64975V6.40577ZM15.2026 6.40577V10.2116H8.79179V6.40577C8.79179 4.60462 10.2266 3.13928 12.0074 3.13928H12.0379C12.8622 3.13928 13.6559 3.47 14.241 4.05512C14.8618 4.67585 15.2128 5.52555 15.2026 6.40577ZM19.6801 21.3695C19.6801 22.2599 18.9576 22.9824 18.0672 22.9824H5.97814C5.08774 22.9824 4.36525 22.2599 4.36525 21.3695V12.8421C4.36525 11.9517 5.08774 11.2292 5.97814 11.2292H18.0672C18.9576 11.2292 19.6801 11.9517 19.6801 12.8421V21.3695Z" fill="white"/>
<path d="M13.7574 16.7904C13.5335 16.0018 12.8161 15.4625 11.9969 15.4625C10.9844 15.4625 10.1602 16.2816 10.1602 17.2992C10.1602 18.1184 10.6995 18.8358 11.4881 19.0597V20.4843C11.4881 20.7641 11.7171 20.9931 11.9969 20.9931C12.2768 20.9931 12.5057 20.7641 12.5057 20.4843V19.0597C13.4775 18.7798 14.0423 17.7622 13.7574 16.7904ZM11.9969 18.1133C11.5441 18.1133 11.1778 17.747 11.1778 17.2941C11.1778 16.8413 11.5441 16.475 11.9969 16.475C12.4497 16.475 12.8161 16.8413 12.8161 17.2941C12.8161 17.747 12.4497 18.1133 11.9969 18.1133Z" fill="white"/>
</svg>
