<svg width="24" height="24" viewBox="0 0 24 24" fill="none" xmlns="http://www.w3.org/2000/svg">
<g clip-path="url(#clip0)">
<path d="M21.0887 4.85934L12.0684 0.052884C11.9346 -0.0185362 11.7742 -0.0175338 11.6414 0.05539L2.87075 4.86185C2.72691 4.94078 2.6377 5.09164 2.6377 5.25578V11.5342C2.64296 16.6953 5.70075 21.3644 10.4295 23.4321L11.6469 23.9626C11.7607 24.0122 11.8902 24.0125 12.0043 23.9631L13.376 23.3707C18.1925 21.3479 21.326 16.6337 21.3265 11.4097V5.25578C21.3265 5.08989 21.235 4.93727 21.0887 4.85934ZM20.4283 11.4097C20.4273 16.2735 17.5091 20.6623 13.0245 22.5445L13.0214 22.546L11.8268 23.0617L10.7889 22.6089C6.38713 20.6843 3.5406 16.3384 3.53559 11.5342V5.52167L11.8602 0.959294L20.4283 5.52493V11.4097Z" fill="white"/>
<path d="M8.54663 11.2431C8.3855 11.0544 8.10207 11.0321 7.91337 11.1933C7.72468 11.3541 7.70237 11.6378 7.86351 11.8263L10.2357 14.6041C10.394 14.7896 10.6714 14.8149 10.8604 14.661L16.385 10.1663C16.5775 10.0099 16.6066 9.72701 16.45 9.53455C16.2936 9.34235 16.0107 9.31303 15.8182 9.46965L10.6339 13.6872L8.54663 11.2431Z" fill="white"/>
</g>
<defs>
<clipPath id="clip0">
<rect width="24" height="24" fill="white"/>
</clipPath>
</defs>
</svg>
