<?xml version="1.0" encoding="utf-8"?>
<!-- Generator: Adobe Illustrator 22.0.1, SVG Export Plug-In . SVG Version: 6.00 Build 0)  -->
<svg version="1.1" id="Capa_1" xmlns="http://www.w3.org/2000/svg" xmlns:xlink="http://www.w3.org/1999/xlink" x="0px" y="0px"
	 viewBox="0 0 450 610" style="enable-background:new 0 0 450 610;" xml:space="preserve">
<g>
	<g id="Shape_11">
		<g>
			<path d="M-99.7,352.8h-23.6c-21.3,0-38.7,17.5-38.7,39.1v174.7c0,21.6,17.4,39.1,38.7,39.1h23.6c21.3,0,38.7-17.5,38.7-39.1
				V391.9C-61,370.4-78.4,352.8-99.7,352.8z M-85.4,566.6c0,8-6.4,14.5-14.4,14.5h-23.6c-7.9,0-14.4-6.5-14.4-14.5V391.9
				c0-8,6.4-14.5,14.4-14.5h23.6c7.9,0,14.4,6.5,14.4,14.5L-85.4,566.6L-85.4,566.6z M64.8,238.6H41.3c-21.3,0-38.7,17.5-38.7,39.1
				v288.9c0,21.6,17.4,39.1,38.7,39.1h23.6c21.3,0,38.7-17.5,38.7-39.1V277.8C103.5,256.2,86.2,238.6,64.8,238.6z M79.2,566.6
				c0,8-6.4,14.5-14.4,14.5H41.3c-7.9,0-14.4-6.5-14.4-14.5V277.8c0-8,6.4-14.5,14.4-14.5h23.6c7.9,0,14.4,6.5,14.4,14.5L79.2,566.6
				L79.2,566.6L79.2,566.6z M238.4,113.9h-23.6c-21.3,0-38.7,17.5-38.7,39.1v413.6c0,21.6,17.4,39.1,38.7,39.1h23.6
				c21.3,0,38.7-17.5,38.7-39.1V153C277.1,131.5,259.8,113.9,238.4,113.9z M252.8,566.6c0,8-6.4,14.5-14.4,14.5h-23.6
				c-7.9,0-14.4-6.5-14.4-14.5V153c0-8,6.4-14.5,14.4-14.5h23.6c7.9,0,14.4,6.5,14.4,14.5V566.6z M411.3,6.2h-23.6
				c-21.3,0-38.7,17.5-38.7,39.1v521.3c0,21.6,17.4,39.1,38.7,39.1h23.6c21.3,0,38.7-17.5,38.7-39.1V45.4
				C450,23.8,432.6,6.2,411.3,6.2z M425.7,566.6c0,8-6.4,14.5-14.4,14.5h-23.6c-7.9,0-14.4-6.5-14.4-14.5V45.4
				c0-8,6.4-14.5,14.4-14.5h23.6c7.9,0,14.4,6.5,14.4,14.5V566.6z"/>
		</g>
	</g>
</g>
</svg>
