<svg width="24" height="24" viewBox="0 0 24 24" fill="none" xmlns="http://www.w3.org/2000/svg">
<path d="M14.1679 2.11171C14.1618 2.08171 14.1529 2.05218 14.1411 2.02406C14.1294 1.99546 14.1149 1.96828 14.098 1.94296C14.0807 1.91718 14.0614 1.89328 14.0394 1.87171C14.0179 1.85015 13.9939 1.83046 13.9682 1.81359C13.9429 1.79671 13.9157 1.78218 13.8875 1.77046C13.8594 1.75874 13.8299 1.74937 13.7998 1.74374C13.7394 1.73156 13.6771 1.73156 13.6166 1.74374C13.5866 1.74937 13.5571 1.75874 13.5289 1.77046C13.5008 1.78218 13.4736 1.79671 13.4479 1.81359C13.4225 1.83046 13.3982 1.85015 13.3766 1.87171C13.355 1.89328 13.3354 1.91718 13.3185 1.94296C13.3016 1.96828 13.2871 1.99546 13.2754 2.02406C13.2636 2.05218 13.2547 2.08171 13.2486 2.11171C13.2425 2.14171 13.2393 2.17265 13.2393 2.20312C13.2393 2.23359 13.2425 2.26453 13.2486 2.29453C13.2547 2.32453 13.2636 2.35406 13.2754 2.38265C13.2871 2.41078 13.3016 2.43796 13.3185 2.46328C13.3354 2.48906 13.355 2.51296 13.3766 2.53453C13.3982 2.55609 13.4225 2.57578 13.4479 2.59265C13.4736 2.60953 13.5008 2.62406 13.5289 2.63578C13.557 2.64749 13.5866 2.65687 13.6166 2.66249C13.6466 2.66859 13.6775 2.67187 13.708 2.67187C13.7389 2.67187 13.7694 2.66859 13.7998 2.66249C13.8299 2.65687 13.8594 2.64749 13.8875 2.63578C13.9157 2.62406 13.9429 2.60953 13.9682 2.59265C13.9939 2.57578 14.0179 2.55609 14.0394 2.53453C14.0614 2.51296 14.0807 2.48906 14.098 2.46328C14.1149 2.43796 14.1294 2.41078 14.1411 2.38265C14.1529 2.35406 14.1618 2.32453 14.1679 2.29453C14.1739 2.26453 14.1767 2.23359 14.1767 2.20312C14.1767 2.17265 14.1739 2.14171 14.1679 2.11171Z" fill="white"/>
<path d="M9.20449 21.7055C9.1984 21.6755 9.18949 21.646 9.17777 21.6179C9.16605 21.5893 9.15152 21.5621 9.13465 21.5368C9.11777 21.511 9.09809 21.4871 9.07652 21.4655C9.05496 21.444 9.03059 21.4243 9.00527 21.4074C8.97949 21.3905 8.95231 21.376 8.92418 21.3643C8.89606 21.3526 8.86652 21.3432 8.83652 21.3371C8.77605 21.3254 8.71371 21.3254 8.65324 21.3371C8.62324 21.3432 8.59371 21.3526 8.56559 21.3643C8.53746 21.376 8.51027 21.3905 8.48496 21.4074C8.45918 21.4243 8.43527 21.444 8.41371 21.4655C8.39168 21.4871 8.37246 21.511 8.35512 21.5368C8.33824 21.5621 8.32371 21.5893 8.31199 21.6179C8.30027 21.646 8.29137 21.6755 8.28527 21.7055C8.27918 21.7355 8.27637 21.7665 8.27637 21.7969C8.27637 21.8274 8.27918 21.8583 8.28527 21.8883C8.29137 21.9183 8.30027 21.9479 8.31199 21.976C8.32371 22.0046 8.33824 22.0318 8.35512 22.0571C8.37246 22.0829 8.39168 22.1068 8.41371 22.1283C8.43527 22.1499 8.45918 22.1696 8.48496 22.1865C8.51027 22.2033 8.53746 22.2179 8.56559 22.2296C8.59371 22.2413 8.62324 22.2507 8.65324 22.2563C8.68371 22.2624 8.71465 22.2657 8.74512 22.2657C8.8684 22.2657 8.98934 22.2155 9.07652 22.1283C9.16371 22.0412 9.21387 21.9202 9.21387 21.7969C9.21387 21.7665 9.21059 21.7355 9.20449 21.7055Z" fill="white"/>
<path d="M13.0489 11.5313H11.6953V9.24663C11.6953 8.98774 11.4855 8.77788 11.2266 8.77788C10.9677 8.77788 10.7578 8.98774 10.7578 9.24663V12C10.7578 12.2589 10.9677 12.4688 11.2266 12.4688H13.0489C13.3077 12.4688 13.5176 12.2589 13.5176 12C13.5176 11.7411 13.3077 11.5313 13.0489 11.5313Z" fill="white"/>
<path d="M20.2266 10.3983H18.9857C18.9003 9.98428 18.7826 9.58195 18.6353 9.19411L19.867 8.40834C19.9718 8.3415 20.0458 8.2357 20.0727 8.11434C20.0995 7.99294 20.077 7.86586 20.0101 7.76105L19.0704 6.28791C19.0035 6.18309 18.8977 6.10912 18.7764 6.08231C18.6552 6.05541 18.528 6.07795 18.4231 6.1448L17.2683 6.88153C16.998 6.56287 16.7029 6.26583 16.3861 5.99334L15.8415 0.423141C15.8181 0.183047 15.6162 0 15.375 0H7.07812C6.83691 0 6.63506 0.183047 6.61158 0.423141L6.06703 5.99339C4.37677 7.44731 3.30469 9.6008 3.30469 12C3.30469 14.3992 4.37677 16.5527 6.06703 18.0066L6.61158 23.5769C6.63506 23.817 6.83691 24 7.07812 24H15.375C15.6162 24 15.8181 23.817 15.8415 23.5769L16.386 18.0066C17.8175 16.7753 18.8056 15.0422 19.0746 13.0831H20.2266C20.4854 13.0831 20.6953 12.8732 20.6953 12.6143V10.867C20.6953 10.6081 20.4854 10.3983 20.2266 10.3983ZM7.33373 2.67188H11.9739C12.2328 2.67188 12.4427 2.46202 12.4427 2.20312C12.4427 1.94423 12.2328 1.73438 11.9739 1.73438H7.42537L7.50328 0.9375H14.9498L15.3716 5.25136C14.165 4.50755 12.745 4.07812 11.2266 4.07812C9.70814 4.07812 8.28811 4.50755 7.08155 5.25131L7.33373 2.67188ZM15.1194 21.3281H10.4792C10.2203 21.3281 10.0104 21.538 10.0104 21.7969C10.0104 22.0558 10.2203 22.2656 10.4792 22.2656H15.0278L14.9498 23.0625H7.50328L7.08155 18.7487C8.28811 19.4925 9.70814 19.9219 11.2266 19.9219C12.745 19.9219 14.165 19.4925 15.3716 18.7486L15.1194 21.3281ZM11.2266 18.9844C7.37536 18.9844 4.24219 15.8512 4.24219 12C4.24219 8.1488 7.37536 5.01562 11.2266 5.01562C15.0778 5.01562 18.2109 8.1488 18.2109 12C18.2109 15.8512 15.0778 18.9844 11.2266 18.9844ZM17.8333 7.63308L18.5321 7.1873L18.9677 7.87003L18.2461 8.33034C18.1202 8.09044 17.9823 7.85775 17.8333 7.63308ZM19.7578 12.1456H19.1471C19.148 12.0972 19.1484 12.0486 19.1484 12C19.1484 11.7764 19.1391 11.5548 19.1208 11.3358H19.7578V12.1456Z" fill="white"/>
<path d="M11.2271 6.01988C7.92972 6.01988 5.24707 8.70254 5.24707 12C5.24707 15.2974 7.92972 17.98 11.2271 17.98C14.5246 17.98 17.2072 15.2974 17.2072 12C17.2072 8.70254 14.5246 6.01988 11.2271 6.01988ZM11.6959 17.0209V16.7324C11.6959 16.4735 11.486 16.2637 11.2271 16.2637C10.9683 16.2637 10.7584 16.4735 10.7584 16.7324V17.0209C8.35118 16.798 6.42912 14.8759 6.20618 12.4687H6.49469C6.75358 12.4687 6.96344 12.2588 6.96344 12C6.96344 11.7411 6.75358 11.5312 6.49469 11.5312H6.20618C6.42912 9.12399 8.35118 7.20193 10.7584 6.97899V7.26751C10.7584 7.5264 10.9683 7.73626 11.2271 7.73626C11.486 7.73626 11.6959 7.5264 11.6959 7.26751V6.97899C14.1031 7.20188 16.0252 9.12399 16.2481 11.5312H15.9596C15.7007 11.5312 15.4908 11.7411 15.4908 12C15.4908 12.2588 15.7007 12.4687 15.9596 12.4687H16.2481C16.0252 14.8759 14.1031 16.798 11.6959 17.0209Z" fill="white"/>
</svg>
