<?xml version="1.0" encoding="utf-8"?><svg xmlns="http://www.w3.org/2000/svg" xmlns:xlink="http://www.w3.org/1999/xlink"><symbol viewBox="0 0 6 3" id="arrow" xmlns="http://www.w3.org/2000/svg"><path d="M3 3L0 0h6L3 3z"/></symbol><symbol viewBox="0 0 10 18" id="arrowLeft" xmlns="http://www.w3.org/2000/svg"><path d="M9 1L1 9l8 8"/></symbol><symbol viewBox="0 0 10 18" id="arrowRight" xmlns="http://www.w3.org/2000/svg"><path d="M1 17l8-8-8-8"/></symbol><symbol viewBox="0 0 24 24" id="car" xmlns="http://www.w3.org/2000/svg"><g clip-path="url(#dclip0)"><path d="M23.185 11.086l-1.634-.707-1.388-2.7a2.185 2.185 0 00-1.966-1.195h-2.39v-.675A2.205 2.205 0 0013.61 3.59H2.186C.965 3.59 0 4.592 0 5.81v10.34a1.347 1.347 0 001.329 1.366h.305c0 .054-.005.075-.005.108a2.776 2.776 0 005.551.02v-.026c0-.037 0-.053-.005-.107h9.232v.107a2.776 2.776 0 005.551.022v-.134h.692c.744 0 1.35-.606 1.35-1.35v-3.827a1.344 1.344 0 00-.815-1.243zM4.41 19.343a1.7 1.7 0 01-1.704-1.703 1.7 1.7 0 011.704-1.704 1.7 1.7 0 011.704 1.704c0 .937-.766 1.703-1.704 1.703zm10.325-2.888H6.923a2.753 2.753 0 00-2.513-1.602 2.739 2.739 0 00-2.513 1.602H1.35c-.166 0-.278-.128-.278-.294V13.4h13.663v3.054zm0-10.641v6.515H1.072V5.814c0-.627.487-1.147 1.114-1.147H13.61c.627.006 1.13.52 1.125 1.142v.005zm1.072 1.747h2.39a1.13 1.13 0 011.018.605l1.072 2.074h-4.48V7.56zm3.381 11.782a1.7 1.7 0 01-1.704-1.703c0-.944.761-1.704 1.704-1.704s1.704.76 1.704 1.704c0 .937-.76 1.703-1.704 1.703zm3.745-3.182c0 .166-.112.294-.278.294H21.7a2.774 2.774 0 00-5.026 0h-.868v-5.143h5.251l1.704.75a.315.315 0 01.171.289v3.81z"/></g><defs><clipPath id="dclip0"><path d="M0 0h24v24H0z"/></clipPath></defs></symbol><symbol viewBox="0 0 24 24" id="check" xmlns="http://www.w3.org/2000/svg"><path d="M10.5 14.793l6.646-6.647a.5.5 0 01.708.708l-7 7a.5.5 0 01-.708 0l-3-3a.5.5 0 01.708-.708l2.646 2.647z"/></symbol><symbol viewBox="0 0 24 24" id="close" xmlns="http://www.w3.org/2000/svg"><path d="M3 20L19.97 3.03l.708.707-16.97 16.97z"/><path d="M4 3l16.97 16.97-.707.708-16.97-16.97z"/></symbol><symbol viewBox="0 0 22 12" id="down" xmlns="http://www.w3.org/2000/svg"><path d="M1 1l10 10L21 1"/></symbol><symbol viewBox="0 0 24 24" id="favorite" xmlns="http://www.w3.org/2000/svg"><path d="M17.229.546A6.772 6.772 0 0012 3.02 6.772 6.772 0 006.771.546 6.779 6.779 0 000 7.316c0 2.924 1.743 6.306 5.181 10.052 2.646 2.882 5.525 5.114 6.344 5.73l.475.356.475-.357c.82-.615 3.698-2.847 6.344-5.73C22.256 13.623 24 10.24 24 7.318A6.779 6.779 0 0017.229.546zm.424 15.752c-2.177 2.37-4.518 4.287-5.653 5.17-1.135-.883-3.477-2.8-5.653-5.17-3.117-3.396-4.765-6.502-4.765-8.981a5.195 5.195 0 015.19-5.189 5.192 5.192 0 014.536 2.678L12 6.054l.692-1.248a5.192 5.192 0 014.537-2.678 5.195 5.195 0 015.189 5.189c0 2.48-1.648 5.585-4.765 8.98z"/><path d="M17.653 16.297c-2.177 2.371-4.518 4.288-5.653 5.171-1.135-.883-3.477-2.8-5.653-5.17-3.117-3.396-4.765-6.502-4.765-8.981a5.195 5.195 0 015.19-5.189 5.192 5.192 0 014.536 2.678L12 6.054l.692-1.248a5.192 5.192 0 014.537-2.678 5.195 5.195 0 015.189 5.189c0 2.48-1.648 5.585-4.765 8.98z"/></symbol><symbol viewBox="0 0 10 10" id="filter" xmlns="http://www.w3.org/2000/svg"><path d="M4.071 5.516v-.222l-.165-.15L.5 2.08V.5h9v1.58L6.094 5.145l-.165.149v3.189l-1.858.929V5.516zM.5 2.143zm9 .001v-.001.001zm-3.492 6.3z"/></symbol><symbol viewBox="0 0 24 24" id="heart" xmlns="http://www.w3.org/2000/svg"><path d="M17.229.546A6.772 6.772 0 0012 3.02 6.772 6.772 0 006.771.546 6.779 6.779 0 000 7.316c0 2.924 1.743 6.306 5.181 10.052 2.646 2.882 5.525 5.114 6.344 5.73l.475.356.475-.357c.82-.615 3.698-2.847 6.344-5.73C22.256 13.623 24 10.24 24 7.318A6.779 6.779 0 0017.229.546zm.424 15.752c-2.177 2.37-4.518 4.287-5.653 5.17-1.135-.883-3.477-2.8-5.653-5.17-3.117-3.396-4.765-6.502-4.765-8.981a5.195 5.195 0 015.19-5.189 5.192 5.192 0 014.536 2.678L12 6.054l.692-1.248a5.192 5.192 0 014.537-2.678 5.195 5.195 0 015.189 5.189c0 2.48-1.648 5.585-4.765 8.98z"/></symbol><symbol viewBox="0 0 16 16" id="list" xmlns="http://www.w3.org/2000/svg"><g clip-path="url(#kclip0)"><path d="M14.001 2.5H4.005a1 1 0 000 1.998H14a1 1 0 100-1.999zm-11.996.999a1 1 0 00-2 0 .851.851 0 000 .195.901.901 0 00.15.36.914.914 0 00.275.274c.053.039.11.07.17.095.067.035.137.06.21.075.065.008.13.008.195 0a1 1 0 00.925-.614.928.928 0 00.075-.19.852.852 0 000-.195zm0 4.498a.855.855 0 000-.195.81.81 0 00-.075-.185 1 1 0 00-.22-.325 1 1 0 00-1.54 1.26.96.96 0 00.13.15.73.73 0 00.15.125.85.85 0 00.36.15.83.83 0 00.196.02c.064.007.13.007.194 0a.812.812 0 00.185-.055.835.835 0 00.175-.095.73.73 0 00.15-.125.73.73 0 00.125-.15.804.804 0 00.095-.17.845.845 0 00.075-.21.827.827 0 000-.195zm0 4.499a.858.858 0 000-.195.852.852 0 00-.075-.19 1.16 1.16 0 00-.095-.17 1 1 0 00-1.66 0 .82.82 0 00-.15.36 1 1 0 00.275.9.73.73 0 00.15.124.854.854 0 00.36.15.81.81 0 00.196.02c.064.008.13.008.194 0a.812.812 0 00.185-.055.838.838 0 00.175-.095.73.73 0 00.15-.125.73.73 0 00.125-.15.8.8 0 00.095-.17.849.849 0 00.075-.21.827.827 0 000-.194zM15 6.998H4.006a1 1 0 000 1.999H15a1 1 0 000-2zm-4.498 4.498H4.005a1 1 0 100 2h6.497a1 1 0 000-2z"/></g><defs><clipPath id="kclip0"><path d="M0 0h16v16H0z"/></clipPath></defs></symbol><symbol viewBox="0 0 24 24" id="lock" xmlns="http://www.w3.org/2000/svg"><path d="M18.357 10.207V6.405a6.373 6.373 0 00-1.903-4.58A6.17 6.17 0 0012.074 0h-.082C8.487.005 5.637 2.875 5.637 6.406v3.8c-1.323.158-2.29 1.267-2.29 2.61v8.538c0 1.45 1.16 2.646 2.61 2.646h12.085c1.45 0 2.61-1.196 2.61-2.646v-8.537c-.005-1.338-.972-2.453-2.295-2.61zM6.65 6.405h.005c0-2.972 2.396-5.404 5.342-5.404h.005a5.27 5.27 0 013.735 1.537 5.388 5.388 0 011.597 3.867v3.806h-1.119V6.406a4.288 4.288 0 00-1.267-3.078 4.125 4.125 0 00-2.915-1.211h-.03c-2.341 0-4.234 1.923-4.234 4.284v3.81H6.65V6.407zm8.553 0v3.806H8.792V6.406c0-1.801 1.435-3.267 3.215-3.267h.03c.825 0 1.619.331 2.204.916.62.62.972 1.47.962 2.35zm4.477 14.963c0 .89-.722 1.613-1.613 1.613H5.978c-.89 0-1.613-.722-1.613-1.613v-8.527c0-.89.723-1.613 1.613-1.613h12.09c.89 0 1.612.723 1.612 1.613v8.527z"/><path d="M13.757 16.79a1.826 1.826 0 00-1.76-1.327 1.836 1.836 0 00-1.837 1.836c0 .82.54 1.537 1.328 1.76v1.425c0 .28.23.51.509.51a.51.51 0 00.509-.51V19.06a1.83 1.83 0 001.251-2.27zm-1.76 1.323a.819.819 0 11-.001-1.637.819.819 0 010 1.637z"/></symbol><symbol viewBox="0 0 13 13" id="plus" xmlns="http://www.w3.org/2000/svg"><path d="M6 0h1v13H6z"/><path d="M13 6v1H0V6z"/></symbol><symbol viewBox="0 0 12 12" id="search" xmlns="http://www.w3.org/2000/svg"><circle cx="4.5" cy="4.5" r="4"/><path d="M7 7l4.5 4.5"/></symbol><symbol viewBox="0 0 24 24" id="shield" xmlns="http://www.w3.org/2000/svg"><g clip-path="url(#oclip0)"><path d="M21.089 4.86L12.069.052a.448.448 0 00-.428.002l-8.77 4.807a.449.449 0 00-.233.394v6.278a13 13 0 007.792 11.898l1.217.53c.114.05.243.05.357.001l1.372-.592a12.974 12.974 0 007.95-11.961V5.256a.45.45 0 00-.237-.397zm-.66 6.55a12.078 12.078 0 01-7.404 11.134l-.004.002-1.194.516-1.038-.453a12.1 12.1 0 01-7.253-11.075V5.522L11.86.959l8.568 4.566v5.885z"/><path d="M8.547 11.243a.449.449 0 10-.683.583l2.372 2.778c.158.186.435.21.624.057l5.525-4.495a.449.449 0 10-.567-.696l-5.184 4.217-2.087-2.444z"/></g><defs><clipPath id="oclip0"><path d="M0 0h24v24H0z"/></clipPath></defs></symbol><symbol viewBox="0 0 22 12" id="up" xmlns="http://www.w3.org/2000/svg"><path d="M1 11L11 1l10 10"/></symbol><symbol viewBox="0 0 450 610" id="volume" xmlns="http://www.w3.org/2000/svg"><path d="M-99.7 352.8h-23.6c-21.3 0-38.7 17.5-38.7 39.1v174.7c0 21.6 17.4 39.1 38.7 39.1h23.6c21.3 0 38.7-17.5 38.7-39.1V391.9c0-21.5-17.4-39.1-38.7-39.1zm14.3 213.8c0 8-6.4 14.5-14.4 14.5h-23.6c-7.9 0-14.4-6.5-14.4-14.5V391.9c0-8 6.4-14.5 14.4-14.5h23.6c7.9 0 14.4 6.5 14.4 14.5v174.7zm150.2-328H41.3c-21.3 0-38.7 17.5-38.7 39.1v288.9c0 21.6 17.4 39.1 38.7 39.1h23.6c21.3 0 38.7-17.5 38.7-39.1V277.8c-.1-21.6-17.4-39.2-38.8-39.2zm14.4 328c0 8-6.4 14.5-14.4 14.5H41.3c-7.9 0-14.4-6.5-14.4-14.5V277.8c0-8 6.4-14.5 14.4-14.5h23.6c7.9 0 14.4 6.5 14.4 14.5l-.1 288.8zm159.2-452.7h-23.6c-21.3 0-38.7 17.5-38.7 39.1v413.6c0 21.6 17.4 39.1 38.7 39.1h23.6c21.3 0 38.7-17.5 38.7-39.1V153c0-21.5-17.3-39.1-38.7-39.1zm14.4 452.7c0 8-6.4 14.5-14.4 14.5h-23.6c-7.9 0-14.4-6.5-14.4-14.5V153c0-8 6.4-14.5 14.4-14.5h23.6c7.9 0 14.4 6.5 14.4 14.5v413.6zM411.3 6.2h-23.6c-21.3 0-38.7 17.5-38.7 39.1v521.3c0 21.6 17.4 39.1 38.7 39.1h23.6c21.3 0 38.7-17.5 38.7-39.1V45.4c0-21.6-17.4-39.2-38.7-39.2zm14.4 560.4c0 8-6.4 14.5-14.4 14.5h-23.6c-7.9 0-14.4-6.5-14.4-14.5V45.4c0-8 6.4-14.5 14.4-14.5h23.6c7.9 0 14.4 6.5 14.4 14.5v521.2z"/></symbol><symbol viewBox="0 0 24 24" id="watch" xmlns="http://www.w3.org/2000/svg"><path d="M14.168 2.112a.468.468 0 00-.72-.298.468.468 0 10.72.298zM9.204 21.706a.472.472 0 00-.55-.369.476.476 0 00-.369.369.462.462 0 00.07.351.447.447 0 00.13.13.48.48 0 00.26.079.472.472 0 00.469-.47.462.462 0 00-.01-.09zm3.845-10.175h-1.354V9.247a.469.469 0 10-.937 0V12c0 .259.21.469.469.469h1.822a.469.469 0 000-.938z"/><path d="M20.227 10.398h-1.241a7.867 7.867 0 00-.35-1.204l1.231-.786a.47.47 0 00.143-.647l-.94-1.473a.469.469 0 00-.647-.143l-1.155.737a7.984 7.984 0 00-.882-.889l-.544-5.57A.469.469 0 0015.374 0H7.078a.469.469 0 00-.466.423l-.545 5.57A7.907 7.907 0 003.305 12c0 2.4 1.072 4.553 2.762 6.007l.545 5.57c.023.24.225.423.466.423h8.297a.469.469 0 00.466-.423l.545-5.57a7.918 7.918 0 002.689-4.924h1.152c.258 0 .468-.21.468-.469v-1.747a.469.469 0 00-.468-.469zM7.334 2.672h4.64a.469.469 0 100-.938H7.425l.078-.796h7.447l.422 4.313a7.874 7.874 0 00-4.145-1.173c-1.519 0-2.939.43-4.145 1.173l.252-2.58zm7.785 18.656h-4.64a.469.469 0 000 .938h4.549l-.078.797H7.503l-.421-4.314a7.874 7.874 0 004.145 1.173c1.518 0 2.938-.43 4.145-1.173l-.253 2.58zm-3.892-2.344A6.992 6.992 0 014.242 12a6.992 6.992 0 016.985-6.984A6.992 6.992 0 0118.21 12a6.992 6.992 0 01-6.984 6.984zm6.606-11.35l.7-.447.435.683-.722.46a7.924 7.924 0 00-.413-.697zm1.925 4.512h-.61a7.837 7.837 0 00-.027-.81h.637v.81z"/><path d="M11.227 6.02A5.987 5.987 0 005.247 12a5.987 5.987 0 005.98 5.98 5.987 5.987 0 005.98-5.98 5.987 5.987 0 00-5.98-5.98zm.469 11v-.288a.469.469 0 00-.938 0v.289a5.051 5.051 0 01-4.552-4.552h.289a.469.469 0 000-.938h-.289a5.052 5.052 0 014.552-4.552v.289a.469.469 0 00.938 0v-.289a5.051 5.051 0 014.552 4.552h-.288a.469.469 0 000 .938h.288a5.051 5.051 0 01-4.552 4.552z"/></symbol></svg>