<svg width="101" height="64" viewBox="0 0 101 64" fill="none" xmlns="http://www.w3.org/2000/svg">
<g clip-path="url(#clip0)">
<path d="M1.68164 55.4219C1.54492 55.8438 1.47656 56.3028 1.47656 56.7989C1.47656 57.295 1.54492 57.7559 1.68164 58.1817C1.81836 58.6036 2.01758 58.9786 2.2793 59.3067C2.54102 59.6348 2.88086 59.8926 3.29883 60.0801C3.7207 60.2637 4.19727 60.3555 4.72852 60.3555C5.5918 60.3555 6.36719 60.129 7.05469 59.6758L7.51758 60.3086C6.81055 60.8477 5.88086 61.1172 4.72852 61.1172C4.07227 61.1172 3.47852 61.004 2.94727 60.7774C2.41602 60.5469 1.98047 60.2344 1.64062 59.8399C1.30078 59.4454 1.03906 58.9883 0.855469 58.4688C0.675781 57.9493 0.585938 57.3926 0.585938 56.7989C0.585938 56.2051 0.675781 55.6485 0.855469 55.129C1.03906 54.6094 1.30078 54.1524 1.64062 53.7579C1.98047 53.3633 2.41602 53.0528 2.94727 52.8262C3.47852 52.5958 4.07227 52.4805 4.72852 52.4805C5.88086 52.4805 6.81055 52.75 7.51758 53.2891L7.05469 53.9219C6.36719 53.4688 5.5918 53.2422 4.72852 53.2422C4.19727 53.2422 3.7207 53.336 3.29883 53.5235C2.88086 53.7071 2.54102 53.9629 2.2793 54.2911C2.01758 54.6192 1.81836 54.9961 1.68164 55.4219Z" fill="#1B1C1E"/>
<path d="M11.2031 55.6797C10.9062 55.6797 10.5781 55.7266 10.2188 55.8204C9.85938 55.9102 9.54883 56.0293 9.28711 56.1778L8.95312 55.5567C9.23438 55.377 9.57227 55.2383 9.9668 55.1407C10.3652 55.0391 10.7773 54.9883 11.2031 54.9883C11.6094 54.9883 11.957 55.0313 12.2461 55.1172C12.5352 55.2032 12.7617 55.3165 12.9258 55.4571C13.0938 55.5938 13.2246 55.7774 13.3184 56.0079C13.4121 56.2383 13.4727 56.4688 13.5 56.6993C13.5273 56.9258 13.541 57.2032 13.541 57.5313V61H12.7148V59.8692C12.3672 60.7012 11.6895 61.1172 10.6816 61.1172C9.97852 61.1172 9.41992 60.9571 9.00586 60.6368C8.5957 60.3125 8.39062 59.8379 8.39062 59.2129C8.39062 58.8887 8.45703 58.6016 8.58984 58.3516C8.72266 58.1016 8.9043 57.9024 9.13477 57.754C9.36523 57.6055 9.62305 57.4844 9.9082 57.3907C10.1934 57.2969 10.502 57.2364 10.834 57.209C11.1699 57.1778 11.4902 57.1661 11.7949 57.1739C12.0996 57.1778 12.4062 57.1993 12.7148 57.2383C12.7109 57.0586 12.7031 56.9102 12.6914 56.793C12.6797 56.6719 12.6543 56.5469 12.6152 56.418C12.5801 56.2852 12.5273 56.1797 12.457 56.1016C12.3906 56.0196 12.3027 55.9454 12.1934 55.879C12.0879 55.8086 11.9512 55.7579 11.7832 55.7266C11.6191 55.6954 11.4258 55.6797 11.2031 55.6797ZM9.25195 59.2129C9.25195 59.5762 9.36914 59.8692 9.60352 60.0918C9.8418 60.3145 10.2012 60.4258 10.6816 60.4258C11.0215 60.4258 11.3223 60.3731 11.584 60.2676C11.8496 60.1583 12.0625 60.0118 12.2227 59.8282C12.3867 59.6446 12.5098 59.4395 12.5918 59.2129C12.6738 58.9825 12.7148 58.7383 12.7148 58.4805V57.8536C12.4648 57.8262 12.2129 57.8106 11.959 57.8067C11.709 57.8028 11.4512 57.8125 11.1855 57.836C10.9199 57.8555 10.6738 57.8985 10.4473 57.9649C10.2207 58.0313 10.0156 58.1172 9.83203 58.2227C9.65234 58.3243 9.50977 58.461 9.4043 58.6329C9.30273 58.8008 9.25195 58.9942 9.25195 59.2129Z" fill="#1B1C1E"/>
<path d="M20.2852 55.1055V61H19.459V56.377L16.0371 61H15.1875V55.1055H16.0137V59.7286L19.4355 55.1055H20.2852ZM17.7422 53.9688C17.043 53.9688 16.5039 53.7403 16.125 53.2833C15.9609 53.0762 15.8477 52.8477 15.7852 52.5977H16.418C16.6602 53.0938 17.1016 53.3418 17.7422 53.3418C17.9297 53.3418 18.0977 53.3243 18.2461 53.2891C18.3945 53.254 18.543 53.1797 18.6914 53.0665C18.8398 52.9493 18.9648 52.793 19.0664 52.5977H19.6992C19.6367 52.8477 19.5234 53.0762 19.3594 53.2833C18.9883 53.7403 18.4492 53.9688 17.7422 53.9688Z" fill="#1B1C1E"/>
<path d="M21.5742 55.7969V55.1055H26.7598V55.7969H24.5801V61H23.7539V55.7969H21.5742Z" fill="#1B1C1E"/>
<path d="M31.418 55.1055H32.2441V56.3184C32.4668 55.8848 32.7734 55.5547 33.1641 55.3282C33.5547 55.1016 33.9551 54.9883 34.3652 54.9883C34.8496 54.9883 35.2852 55.0704 35.6719 55.2344C36.0586 55.3985 36.373 55.6231 36.6152 55.9083C36.8574 56.1895 37.041 56.5137 37.166 56.8809C37.2949 57.2442 37.3594 57.6348 37.3594 58.0528C37.3594 58.4708 37.2949 58.8633 37.166 59.2305C37.041 59.5938 36.8574 59.918 36.6152 60.2032C36.373 60.4844 36.0586 60.7071 35.6719 60.8711C35.2852 61.0352 34.8496 61.1172 34.3652 61.1172C33.9551 61.1172 33.5547 61.004 33.1641 60.7774C32.7734 60.5508 32.4668 60.2208 32.2441 59.7872V64.1172H31.418V55.1055ZM33.1992 60.0918C33.5273 60.3145 33.916 60.4258 34.3652 60.4258C34.8145 60.4258 35.2012 60.3145 35.5254 60.0918C35.8535 59.8653 36.0957 59.5762 36.252 59.2247C36.4082 58.8731 36.4863 58.4825 36.4863 58.0528C36.4863 57.6231 36.4082 57.2325 36.252 56.8809C36.0957 56.5293 35.8535 56.2422 35.5254 56.0196C35.2012 55.793 34.8145 55.6797 34.3652 55.6797C33.916 55.6797 33.5273 55.7911 33.1992 56.0137C32.875 56.2364 32.6348 56.5254 32.4785 56.8809C32.3223 57.2325 32.2441 57.6231 32.2441 58.0528C32.2441 58.4825 32.3223 58.875 32.4785 59.2305C32.6348 59.5821 32.875 59.8692 33.1992 60.0918Z" fill="#1B1C1E"/>
<path d="M41.3438 55.6797C41.0469 55.6797 40.7188 55.7266 40.3594 55.8204C40 55.9102 39.6895 56.0293 39.4277 56.1778L39.0938 55.5567C39.375 55.377 39.7129 55.2383 40.1074 55.1407C40.5059 55.0391 40.918 54.9883 41.3438 54.9883C41.75 54.9883 42.0977 55.0313 42.3867 55.1172C42.6758 55.2032 42.9023 55.3165 43.0664 55.4571C43.2344 55.5938 43.3652 55.7774 43.459 56.0079C43.5527 56.2383 43.6133 56.4688 43.6406 56.6993C43.668 56.9258 43.6816 57.2032 43.6816 57.5313V61H42.8555V59.8692C42.5078 60.7012 41.8301 61.1172 40.8223 61.1172C40.1191 61.1172 39.5605 60.9571 39.1465 60.6368C38.7363 60.3125 38.5312 59.8379 38.5312 59.2129C38.5312 58.8887 38.5977 58.6016 38.7305 58.3516C38.8633 58.1016 39.0449 57.9024 39.2754 57.754C39.5059 57.6055 39.7637 57.4844 40.0488 57.3907C40.334 57.2969 40.6426 57.2364 40.9746 57.209C41.3105 57.1778 41.6309 57.1661 41.9355 57.1739C42.2402 57.1778 42.5469 57.1993 42.8555 57.2383C42.8516 57.0586 42.8438 56.9102 42.832 56.793C42.8203 56.6719 42.7949 56.5469 42.7559 56.418C42.7207 56.2852 42.668 56.1797 42.5977 56.1016C42.5312 56.0196 42.4434 55.9454 42.334 55.879C42.2285 55.8086 42.0918 55.7579 41.9238 55.7266C41.7598 55.6954 41.5664 55.6797 41.3438 55.6797ZM39.3926 59.2129C39.3926 59.5762 39.5098 59.8692 39.7441 60.0918C39.9824 60.3145 40.3418 60.4258 40.8223 60.4258C41.1621 60.4258 41.4629 60.3731 41.7246 60.2676C41.9902 60.1583 42.2031 60.0118 42.3633 59.8282C42.5273 59.6446 42.6504 59.4395 42.7324 59.2129C42.8145 58.9825 42.8555 58.7383 42.8555 58.4805V57.8536C42.6055 57.8262 42.3535 57.8106 42.0996 57.8067C41.8496 57.8028 41.5918 57.8125 41.3262 57.836C41.0605 57.8555 40.8145 57.8985 40.5879 57.9649C40.3613 58.0313 40.1562 58.1172 39.9727 58.2227C39.793 58.3243 39.6504 58.461 39.5449 58.6329C39.4434 58.8008 39.3926 58.9942 39.3926 59.2129Z" fill="#1B1C1E"/>
<path d="M45.0938 60.3555L45.5859 59.8516C45.7461 59.9883 45.9844 60.1192 46.3008 60.2442C46.6172 60.3653 46.998 60.4258 47.4434 60.4258C47.9199 60.4258 48.3008 60.3262 48.5859 60.127C48.875 59.9239 49.0195 59.6446 49.0195 59.2891C49.0195 58.8985 48.8379 58.627 48.4746 58.4747C48.1152 58.3223 47.5391 58.2461 46.7461 58.2461V57.5547C47.0781 57.5547 47.3594 57.5411 47.5898 57.5137C47.8242 57.4864 48.0371 57.4395 48.2285 57.3731C48.4238 57.3028 48.5684 57.2012 48.6621 57.0684C48.7598 56.9356 48.8086 56.7696 48.8086 56.5704C48.8086 56.3125 48.6953 56.0997 48.4688 55.9317C48.2461 55.7637 47.9043 55.6797 47.4434 55.6797C47.0566 55.6797 46.707 55.7442 46.3945 55.8731C46.0859 55.9981 45.8555 56.125 45.7031 56.254L45.2109 55.75C45.3945 55.5586 45.6797 55.3848 46.0664 55.2286C46.4531 55.0684 46.9121 54.9883 47.4434 54.9883C48.1152 54.9883 48.6484 55.1348 49.043 55.4278C49.4375 55.7208 49.6348 56.1016 49.6348 56.5704C49.6348 56.8946 49.5469 57.1661 49.3711 57.3848C49.1992 57.6036 48.9824 57.7657 48.7207 57.8711C49.0371 57.9727 49.3027 58.1387 49.5176 58.3692C49.7363 58.5997 49.8457 58.9063 49.8457 59.2891C49.8457 59.5938 49.7793 59.8653 49.6465 60.1036C49.5176 60.3418 49.3398 60.5333 49.1133 60.6778C48.8906 60.8223 48.6367 60.9317 48.3516 61.0059C48.0703 61.0801 47.7676 61.1172 47.4434 61.1172C46.8262 61.1172 46.3242 61.0372 45.9375 60.877C45.5547 60.7168 45.2734 60.543 45.0938 60.3555Z" fill="#1B1C1E"/>
<path d="M51.2578 55.1055H52.084V56.3184C52.3066 55.8848 52.6133 55.5547 53.0039 55.3282C53.3945 55.1016 53.7949 54.9883 54.2051 54.9883C54.6895 54.9883 55.125 55.0704 55.5117 55.2344C55.8984 55.3985 56.2129 55.6231 56.4551 55.9083C56.6973 56.1895 56.8809 56.5137 57.0059 56.8809C57.1348 57.2442 57.1992 57.6348 57.1992 58.0528C57.1992 58.4708 57.1348 58.8633 57.0059 59.2305C56.8809 59.5938 56.6973 59.918 56.4551 60.2032C56.2129 60.4844 55.8984 60.7071 55.5117 60.8711C55.125 61.0352 54.6895 61.1172 54.2051 61.1172C53.7949 61.1172 53.3945 61.004 53.0039 60.7774C52.6133 60.5508 52.3066 60.2208 52.084 59.7872V64.1172H51.2578V55.1055ZM53.0391 60.0918C53.3672 60.3145 53.7559 60.4258 54.2051 60.4258C54.6543 60.4258 55.041 60.3145 55.3652 60.0918C55.6934 59.8653 55.9355 59.5762 56.0918 59.2247C56.248 58.8731 56.3262 58.4825 56.3262 58.0528C56.3262 57.6231 56.248 57.2325 56.0918 56.8809C55.9355 56.5293 55.6934 56.2422 55.3652 56.0196C55.041 55.793 54.6543 55.6797 54.2051 55.6797C53.7559 55.6797 53.3672 55.7911 53.0391 56.0137C52.7148 56.2364 52.4746 56.5254 52.3184 56.8809C52.1621 57.2325 52.084 57.6231 52.084 58.0528C52.084 58.4825 52.1621 58.875 52.3184 59.2305C52.4746 59.5821 52.7148 59.8692 53.0391 60.0918Z" fill="#1B1C1E"/>
<path d="M61.1836 55.6797C60.8867 55.6797 60.5586 55.7266 60.1992 55.8204C59.8398 55.9102 59.5293 56.0293 59.2676 56.1778L58.9336 55.5567C59.2148 55.377 59.5527 55.2383 59.9473 55.1407C60.3457 55.0391 60.7578 54.9883 61.1836 54.9883C61.5898 54.9883 61.9375 55.0313 62.2266 55.1172C62.5156 55.2032 62.7422 55.3165 62.9062 55.4571C63.0742 55.5938 63.2051 55.7774 63.2988 56.0079C63.3926 56.2383 63.4531 56.4688 63.4805 56.6993C63.5078 56.9258 63.5215 57.2032 63.5215 57.5313V61H62.6953V59.8692C62.3477 60.7012 61.6699 61.1172 60.6621 61.1172C59.959 61.1172 59.4004 60.9571 58.9863 60.6368C58.5762 60.3125 58.3711 59.8379 58.3711 59.2129C58.3711 58.8887 58.4375 58.6016 58.5703 58.3516C58.7031 58.1016 58.8848 57.9024 59.1152 57.754C59.3457 57.6055 59.6035 57.4844 59.8887 57.3907C60.1738 57.2969 60.4824 57.2364 60.8145 57.209C61.1504 57.1778 61.4707 57.1661 61.7754 57.1739C62.0801 57.1778 62.3867 57.1993 62.6953 57.2383C62.6914 57.0586 62.6836 56.9102 62.6719 56.793C62.6602 56.6719 62.6348 56.5469 62.5957 56.418C62.5605 56.2852 62.5078 56.1797 62.4375 56.1016C62.3711 56.0196 62.2832 55.9454 62.1738 55.879C62.0684 55.8086 61.9316 55.7579 61.7637 55.7266C61.5996 55.6954 61.4062 55.6797 61.1836 55.6797ZM59.2324 59.2129C59.2324 59.5762 59.3496 59.8692 59.584 60.0918C59.8223 60.3145 60.1816 60.4258 60.6621 60.4258C61.002 60.4258 61.3027 60.3731 61.5645 60.2676C61.8301 60.1583 62.043 60.0118 62.2031 59.8282C62.3672 59.6446 62.4902 59.4395 62.5723 59.2129C62.6543 58.9825 62.6953 58.7383 62.6953 58.4805V57.8536C62.4453 57.8262 62.1934 57.8106 61.9395 57.8067C61.6895 57.8028 61.4316 57.8125 61.166 57.836C60.9004 57.8555 60.6543 57.8985 60.4277 57.9649C60.2012 58.0313 59.9961 58.1172 59.8125 58.2227C59.6328 58.3243 59.4902 58.461 59.3848 58.6329C59.2832 58.8008 59.2324 58.9942 59.2324 59.2129Z" fill="#1B1C1E"/>
<path d="M66.0352 56.3184C66.2578 55.8848 66.5645 55.5547 66.9551 55.3282C67.3457 55.1016 67.7461 54.9883 68.1562 54.9883C68.6406 54.9883 69.0762 55.0704 69.4629 55.2344C69.8496 55.3985 70.1641 55.6231 70.4062 55.9083C70.6484 56.1895 70.832 56.5137 70.957 56.8809C71.0859 57.2442 71.1504 57.6348 71.1504 58.0528C71.1504 58.4708 71.0859 58.8633 70.957 59.2305C70.832 59.5938 70.6484 59.918 70.4062 60.2032C70.1641 60.4844 69.8496 60.7071 69.4629 60.8711C69.0762 61.0352 68.6406 61.1172 68.1562 61.1172C67.3086 61.1172 66.6211 60.8379 66.0938 60.2793C65.5664 59.7208 65.2715 58.9786 65.209 58.0528C65.1465 57.2481 65.1543 56.5254 65.2324 55.8848C65.3105 55.2403 65.4375 54.7051 65.6133 54.2793C65.793 53.8536 66.0215 53.4903 66.2988 53.1895C66.5801 52.8848 66.873 52.6543 67.1777 52.4981C67.4824 52.3379 67.8223 52.2208 68.1973 52.1465C68.5723 52.0723 68.9219 52.0372 69.2461 52.0411C69.5703 52.0411 69.9121 52.0665 70.2715 52.1172L70.2598 52.8321C69.9629 52.8008 69.6875 52.7852 69.4336 52.7852C69.1836 52.7813 68.9121 52.8008 68.6191 52.8438C68.3301 52.8829 68.0703 52.9493 67.8398 53.043C67.6094 53.1329 67.3809 53.2657 67.1543 53.4415C66.9316 53.6172 66.7441 53.8321 66.5918 54.086C66.4395 54.3399 66.3125 54.6563 66.2109 55.0352C66.1094 55.4141 66.0508 55.8418 66.0352 56.3184ZM69.3164 56.0196C68.9922 55.793 68.6055 55.6797 68.1562 55.6797C67.707 55.6797 67.3184 55.7911 66.9902 56.0137C66.666 56.2364 66.4258 56.5254 66.2695 56.8809C66.1133 57.2325 66.0352 57.6231 66.0352 58.0528C66.0352 58.4825 66.1133 58.875 66.2695 59.2305C66.4258 59.5821 66.666 59.8692 66.9902 60.0918C67.3184 60.3145 67.707 60.4258 68.1562 60.4258C68.6055 60.4258 68.9922 60.3145 69.3164 60.0918C69.6445 59.8653 69.8867 59.5762 70.043 59.2247C70.1992 58.8731 70.2773 58.4825 70.2773 58.0528C70.2773 57.6231 70.1992 57.2325 70.043 56.8809C69.8867 56.5293 69.6445 56.2422 69.3164 56.0196Z" fill="#1B1C1E"/>
<path d="M73.166 55.8438C73.7285 55.2735 74.4785 54.9883 75.416 54.9883C76.3535 54.9883 77.1016 55.2735 77.6602 55.8438C78.2227 56.4141 78.5039 57.1504 78.5039 58.0528C78.5039 58.9551 78.2227 59.6915 77.6602 60.2618C77.1016 60.8321 76.3535 61.1172 75.416 61.1172C74.4785 61.1172 73.7285 60.8321 73.166 60.2618C72.6074 59.6915 72.3281 58.9551 72.3281 58.0528C72.3281 57.1504 72.6074 56.4141 73.166 55.8438ZM77.0508 56.3477C76.668 55.9024 76.123 55.6797 75.416 55.6797C74.709 55.6797 74.1621 55.9024 73.7754 56.3477C73.3926 56.7891 73.2012 57.3575 73.2012 58.0528C73.2012 58.7481 73.3926 59.3184 73.7754 59.7637C74.1621 60.2051 74.709 60.4258 75.416 60.4258C76.123 60.4258 76.668 60.2051 77.0508 59.7637C77.4375 59.3184 77.6309 58.7481 77.6309 58.0528C77.6309 57.3575 77.4375 56.7891 77.0508 56.3477Z" fill="#1B1C1E"/>
<path d="M79.5586 55.7969V55.1055H84.7441V55.7969H82.5645V61H81.7383V55.7969H79.5586Z" fill="#1B1C1E"/>
<path d="M88.6172 55.6797C88.3203 55.6797 87.9922 55.7266 87.6328 55.8204C87.2734 55.9102 86.9629 56.0293 86.7012 56.1778L86.3672 55.5567C86.6484 55.377 86.9863 55.2383 87.3809 55.1407C87.7793 55.0391 88.1914 54.9883 88.6172 54.9883C89.0234 54.9883 89.3711 55.0313 89.6602 55.1172C89.9492 55.2032 90.1758 55.3165 90.3398 55.4571C90.5078 55.5938 90.6387 55.7774 90.7324 56.0079C90.8262 56.2383 90.8867 56.4688 90.9141 56.6993C90.9414 56.9258 90.9551 57.2032 90.9551 57.5313V61H90.1289V59.8692C89.7812 60.7012 89.1035 61.1172 88.0957 61.1172C87.3926 61.1172 86.834 60.9571 86.4199 60.6368C86.0098 60.3125 85.8047 59.8379 85.8047 59.2129C85.8047 58.8887 85.8711 58.6016 86.0039 58.3516C86.1367 58.1016 86.3184 57.9024 86.5488 57.754C86.7793 57.6055 87.0371 57.4844 87.3223 57.3907C87.6074 57.2969 87.916 57.2364 88.248 57.209C88.584 57.1778 88.9043 57.1661 89.209 57.1739C89.5137 57.1778 89.8203 57.1993 90.1289 57.2383C90.125 57.0586 90.1172 56.9102 90.1055 56.793C90.0938 56.6719 90.0684 56.5469 90.0293 56.418C89.9941 56.2852 89.9414 56.1797 89.8711 56.1016C89.8047 56.0196 89.7168 55.9454 89.6074 55.879C89.502 55.8086 89.3652 55.7579 89.1973 55.7266C89.0332 55.6954 88.8398 55.6797 88.6172 55.6797ZM86.666 59.2129C86.666 59.5762 86.7832 59.8692 87.0176 60.0918C87.2559 60.3145 87.6152 60.4258 88.0957 60.4258C88.4355 60.4258 88.7363 60.3731 88.998 60.2676C89.2637 60.1583 89.4766 60.0118 89.6367 59.8282C89.8008 59.6446 89.9238 59.4395 90.0059 59.2129C90.0879 58.9825 90.1289 58.7383 90.1289 58.4805V57.8536C89.8789 57.8262 89.627 57.8106 89.373 57.8067C89.123 57.8028 88.8652 57.8125 88.5996 57.836C88.334 57.8555 88.0879 57.8985 87.8613 57.9649C87.6348 58.0313 87.4297 58.1172 87.2461 58.2227C87.0664 58.3243 86.9238 58.461 86.8184 58.6329C86.7168 58.8008 86.666 58.9942 86.666 59.2129Z" fill="#1B1C1E"/>
<path d="M97.0664 57.5899V55.1055H97.8926V61H97.0664V58.2813H93.4277V61H92.6016V55.1055H93.4277V57.5899H97.0664Z" fill="#1B1C1E"/>
<path d="M23.1895 36H9.55469V10.457H23.1895C24.6621 10.457 25.957 10.6686 27.0742 11.0918C28.2083 11.498 29.0801 12.0482 29.6895 12.7422C30.3158 13.4193 30.7728 14.1471 31.0605 14.9258C31.3652 15.7044 31.5176 16.5254 31.5176 17.3887C31.5176 18.3874 31.2467 19.4115 30.7051 20.4609C30.1803 21.4935 29.4271 22.2467 28.4453 22.7207C29.6133 23.2624 30.5189 24.0664 31.1621 25.1328C31.8223 26.1823 32.1523 27.3587 32.1523 28.6621C32.1523 29.61 32 30.4987 31.6953 31.3281C31.4076 32.1406 30.9336 32.9108 30.2734 33.6387C29.6302 34.3665 28.6992 34.9421 27.4805 35.3652C26.2786 35.7884 24.8483 36 23.1895 36ZM23.1895 33.0039C26.778 33.0039 28.5723 31.5566 28.5723 28.6621C28.5723 25.7676 26.778 24.3203 23.1895 24.3203H13.1348V33.0039H23.1895ZM13.1348 13.4531V21.3242H23.1895C24.9329 21.3242 26.1602 20.9518 26.8711 20.207C27.582 19.4453 27.9375 18.5059 27.9375 17.3887C27.9375 16.2715 27.582 15.3405 26.8711 14.5957C26.1602 13.834 24.9329 13.4531 23.1895 13.4531H13.1348Z" fill="#1B1C1E"/>
<path d="M43.502 15.8398C41.8431 17.7526 41.0137 20.2155 41.0137 23.2285C41.0137 26.2415 41.8431 28.7129 43.502 30.6426C45.1777 32.5553 47.5475 33.5117 50.6113 33.5117C53.5059 33.5117 56.0195 32.623 58.1523 30.8457L60.0312 33.2578C57.6615 35.4245 54.5215 36.5078 50.6113 36.5078C46.5488 36.5078 43.2988 35.2721 40.8613 32.8008C38.4408 30.3294 37.2305 27.1387 37.2305 23.2285C37.2305 19.3184 38.4408 16.1276 40.8613 13.6562C43.2988 11.1849 46.5488 9.94922 50.6113 9.94922C54.5046 9.94922 57.6445 11.041 60.0312 13.2246L58.1523 15.6113C56.0195 13.834 53.5059 12.9453 50.6113 12.9453C47.5475 12.9453 45.1777 13.9102 43.502 15.8398Z" fill="#1B1C1E"/>
<path d="M69.7305 4.79492C69.2565 4.32096 69.0195 3.74544 69.0195 3.06836C69.0195 2.39128 69.2565 1.81576 69.7305 1.3418C70.2044 0.867839 70.7799 0.630859 71.457 0.630859C72.1341 0.630859 72.7096 0.867839 73.1836 1.3418C73.6576 1.81576 73.8945 2.39128 73.8945 3.06836C73.8945 3.74544 73.6576 4.32096 73.1836 4.79492C72.7096 5.26888 72.1341 5.50586 71.457 5.50586C70.7799 5.50586 70.2044 5.26888 69.7305 4.79492ZM79.2012 4.79492C78.7272 4.32096 78.4902 3.74544 78.4902 3.06836C78.4902 2.39128 78.7272 1.81576 79.2012 1.3418C79.6751 0.867839 80.2507 0.630859 80.9277 0.630859C81.6048 0.630859 82.1803 0.867839 82.6543 1.3418C83.1283 1.81576 83.3652 2.39128 83.3652 3.06836C83.3652 3.74544 83.1283 4.32096 82.6543 4.79492C82.1803 5.26888 81.6048 5.50586 80.9277 5.50586C80.2507 5.50586 79.6751 5.26888 79.2012 4.79492ZM76.0781 33.5117C79.1758 33.5117 81.9688 32.4622 84.457 30.3633L86.6914 32.5723C84.1523 35.196 80.6146 36.5078 76.0781 36.5078C73.556 36.5078 71.3555 35.9323 69.4766 34.7812C67.6146 33.6302 66.2012 32.056 65.2363 30.0586C64.2715 28.0612 63.7891 25.7845 63.7891 23.2285C63.7891 20.6725 64.2715 18.3958 65.2363 16.3984C66.2012 14.401 67.6146 12.8268 69.4766 11.6758C71.3555 10.5247 73.556 9.94922 76.0781 9.94922C79.819 9.94922 82.7982 11.2103 85.0156 13.7324C87.25 16.2376 88.3672 19.9023 88.3672 24.7266H67.5723C67.64 27.2826 68.4355 29.39 69.959 31.0488C71.4993 32.6908 73.5391 33.5117 76.0781 33.5117ZM67.5723 21.7305H84.584C84.3639 19.1237 83.5176 17.0078 82.0449 15.3828C80.5892 13.7578 78.6003 12.9453 76.0781 12.9453C73.556 12.9453 71.5586 13.7578 70.0859 15.3828C68.6302 17.0078 67.7923 19.1237 67.5723 21.7305Z" fill="#1B1C1E"/>
<path d="M93.1406 35.543C92.6667 35.069 92.4297 34.4935 92.4297 33.8164C92.4297 33.1393 92.6667 32.5638 93.1406 32.0898C93.6146 31.6159 94.1901 31.3789 94.8672 31.3789C95.5443 31.3789 96.1198 31.6159 96.5938 32.0898C97.0677 32.5638 97.3047 33.1393 97.3047 33.8164C97.3047 34.4935 97.0677 35.069 96.5938 35.543C96.1198 36.0169 95.5443 36.2539 94.8672 36.2539C94.1901 36.2539 93.6146 36.0169 93.1406 35.543Z" fill="#1B1C1E"/>
</g>
<defs>
<clipPath id="clip0">
<rect width="101" height="64" fill="white"/>
</clipPath>
</defs>
</svg>
