<?xml version="1.0" encoding="utf-8"?>
<!-- Generator: Adobe Illustrator 22.0.1, SVG Export Plug-In . SVG Version: 6.00 Build 0)  -->
<svg version="1.1" id="Слой_1" xmlns="http://www.w3.org/2000/svg" xmlns:xlink="http://www.w3.org/1999/xlink" x="0px" y="0px"
	 viewBox="0 0 80.7 73.7" style="enable-background:new 0 0 80.7 73.7;" xml:space="preserve">
<style type="text/css">
	.st0{fill:#1C1C1A;}
</style>
<path class="st0" d="M48.9,36.4H30l-4.4,6.8l13.9,13.9l13.9-13.9L48.9,36.4z M48.2,37.6l3.2,4.9h-5.6l-3.2-4.9H48.2z M37.8,37.6h3.3
	l3.2,4.9h-9.7L37.8,37.6z M30.7,37.6h5.7l-3.2,4.9h-5.7L30.7,37.6z M27.8,43.7h5.3l5.2,10.5L27.8,43.7z M34.5,43.7h10l-5,10
	L34.5,43.7z M40.6,54.2l5.3-10.5h5.3L40.6,54.2z M24.3,45.4l1.3,1.3c-6.8-1.3-18.7-5.8-20-20.9C5.6,25.8,9.5,39.4,24.3,45.4
	L24.3,45.4z M53.3,46.8l1.1-1.1c15.3-5.8,19.3-19.8,19.3-19.8C72.4,41.2,60.1,45.6,53.3,46.8L53.3,46.8z M54.5,56.7v-3.2
	C81.5,47.2,76.1,23,76.1,23c-10.4-0.8-18.1,4.6-20.7,6.6c-0.2,3.4-1,6.5-2,9.2l-2.1-3.3C53.7,27.6,53,17.4,42,7.3
	c-0.7-0.6-1.5-1.3-2.3-1.9c-0.8,0.6-1.6,1.3-2.3,1.9c-10.9,9.9-11.7,19.9-9.5,27.8l-2.2,3.4c-1-2.7-1.7-5.7-1.9-8.9
	c-2.5-2-10.3-7.4-20.7-6.6c0,0-5.3,24.3,21.7,30.5v3.2C-6.5,50.5,0.7,20.6,0.7,20.6c10.9-2.1,20.3,3.4,23.2,5.4
	c0.7-7.4,4.8-15.7,15.7-23.8c11,8.1,15.1,16.4,15.7,23.8c2.9-2,12.3-7.6,23.2-5.4C78.6,20.6,85.8,50.5,54.5,56.7L54.5,56.7z
	 M39.7,7.9c-5.1,9.2-5.9,18.5-5.2,26.1h-2.7C29.9,19,39.7,7.9,39.7,7.9z"/>
<path d="M9.9,62.9V64H6.6v8.5H5.2V64H1.9v-1.1H9.9z"/>
<path d="M14.9,72.5v-9.6h4.1c2.2,0,3.3,1.2,3.3,2.8c0,1.6-1.1,2.5-2.4,2.7l2.4,4h-1.5l-2.3-3.9h-2.2v3.9L14.9,72.5z M16.2,64v3.5
	h2.7c1.3,0,1.9-0.8,1.9-1.7c0-1.1-0.6-1.7-1.9-1.7H16.2z"/>
<path d="M27.8,62.9h1.3v9.6h-1.3V62.9z"/>
<path d="M35.3,62.9h1.5l5.1,7.6v-7.6h1.3v9.6h-1.5l-5.1-7.6v7.6h-1.3V62.9z"/>
<path d="M49.3,62.9h1.3v9.6h-1.3V62.9z"/>
<path d="M64.1,62.9V64h-3.4v8.5h-1.3V64H56v-1.1H64.1z"/>
<path d="M73.4,68.5v4h-1.3v-4l-3.7-5.6h1.6l2.8,4.4l2.9-4.4h1.6L73.4,68.5z"/>
</svg>
